<svg xmlns="http://www.w3.org/2000/svg" width="83" height="40" viewBox="0 0 83 40" fill="none">
    <g clip-path="url(#clip0_1_10)">
        <path d="M20.985 9.60887C22.6162 11.3073 23.4328 13.6415 23.4328 16.6095V29.6883H16.2544V17.5319C16.2544 16.0343 15.845 14.8714 15.0305 14.041C14.2138 13.2127 13.1153 12.7965 11.7373 12.7965C10.3593 12.7965 9.26087 13.2106 8.44419 14.041C7.6275 14.8693 7.22026 16.0343 7.22026 17.5319V29.6883H0V0H7.22026V10.3116C7.95109 9.32232 8.95048 8.53378 10.2184 7.94394C11.4864 7.3562 12.9062 7.06128 14.4824 7.06128C17.1833 7.06128 19.3516 7.91048 20.985 9.60887Z" fill="#141414"/>
        <path d="M49.8903 19.9289H33.55C33.6623 21.3052 34.1334 22.3552 34.9655 23.0831C35.7953 23.8109 36.8167 24.1728 38.0275 24.1728C39.8281 24.1728 41.0807 23.4595 41.7851 22.031H49.4698C49.0758 23.4867 48.3648 24.7961 47.3368 25.959C46.3087 27.122 45.021 28.036 43.4735 28.6969C41.926 29.3579 40.1935 29.6884 38.2806 29.6884C35.9714 29.6884 33.9176 29.2261 32.117 28.2995C30.3163 27.373 28.9075 26.0511 27.8949 24.3317C26.8801 22.6124 26.3738 20.6024 26.3738 18.3016C26.3738 16.0009 26.8735 13.9908 27.8729 12.2715C28.8723 10.5522 30.2723 9.2303 32.0751 8.30372C33.8758 7.37713 35.945 6.91489 38.2828 6.91489C40.6206 6.91489 42.5886 7.36458 44.3628 8.26398C46.1348 9.16337 47.5217 10.4455 48.5211 12.1125C49.5204 13.7796 50.0201 15.7227 50.0201 17.9461C50.0201 18.5798 49.9783 19.2429 49.8947 19.9289H49.8903ZM42.6282 16.1598C42.6282 14.9969 42.2055 14.0703 41.3602 13.3822C40.5149 12.694 39.4605 12.351 38.1926 12.351C36.9246 12.351 35.9604 12.6815 35.1305 13.3424C34.3007 14.0034 33.7856 14.9425 33.5896 16.1598H42.626H42.6282Z" fill="#141414"/>
        <path d="M76.2684 6.97971L61.4911 39.9979H53.7227L59.1269 28.6049L49.5424 6.97971H57.608L63.054 20.9831L68.4582 6.97971H76.2706H76.2684Z" fill="#141414"/>
        <path d="M75.6301 28.6258C74.8288 27.9188 74.426 27.0404 74.426 25.9987C74.426 24.9571 74.8266 24.0326 75.6301 23.311C76.4313 22.5894 77.466 22.2276 78.7339 22.2276C80.0019 22.2276 80.9924 22.5894 81.7959 23.311C82.5994 24.0326 83 24.9299 83 25.9987C83 27.0676 82.5994 27.9188 81.7959 28.6258C80.9946 29.3349 79.9732 29.6884 78.7339 29.6884C77.4946 29.6884 76.4335 29.3349 75.6301 28.6258Z" fill="#141414"/>
    </g>
    <defs>
        <clipPath id="clip0_1_10">
            <rect width="83" height="40" fill="white"/>
        </clipPath>
    </defs>
</svg>